<svg xmlns="http://www.w3.org/2000/svg" xmlns:xlink="http://www.w3.org/1999/xlink"  zoomAndPan="magnify" viewBox="0 0 952.5 149.999998" preserveAspectRatio="xMidYMid meet" version="1.0"><defs><clipPath id="1de48b3174"><path d="M 100.09375 16.042969 L 851.902344 16.042969 L 851.902344 137.5 L 100.09375 137.5 Z M 100.09375 16.042969 " clip-rule="nonzero"/></clipPath></defs><g clip-path="url(#1de48b3174)"><path fill="#2acd35" d="M 797.988281 49.957031 C 797.050781 50.394531 796.105469 50.824219 795.15625 51.257812 C 793.597656 49.34375 797.519531 47.550781 797.988281 49.957031 Z M 591.941406 130.726562 C 614.371094 126.972656 636.214844 121.589844 658.410156 116.628906 C 658.238281 116.066406 658.0625 115.492188 657.894531 114.929688 C 659.589844 114.351562 659.824219 116.230469 661.449219 115.761719 C 663.839844 115.667969 660.894531 112.921875 663.980469 113.175781 C 664.890625 113.128906 664.335938 114.160156 663.714844 114.488281 C 664.980469 114.265625 667.433594 113.496094 668.054688 111.363281 C 670.167969 110.984375 667.113281 114.039062 669.785156 112.699219 C 678.960938 107.933594 691.691406 108.445312 700.980469 100.378906 C 721.222656 94.316406 740.617188 86.164062 759.621094 77.492188 C 763.890625 75.539062 767.488281 73.097656 771.011719 72.160156 C 774.1875 71.304688 779.488281 68.085938 782.886719 66.4375 C 786.660156 64.609375 793.042969 60.007812 793.042969 60.007812 C 793.042969 60.007812 802.109375 58.519531 799.632812 56.367188 C 807.855469 55.003906 815.460938 47.699219 823.113281 44.574219 C 824.441406 44.242188 823.808594 43.292969 823.433594 42.4375 C 826.125 43.757812 828.148438 39.621094 830.398438 40.964844 C 829.359375 37.363281 834.777344 40.265625 834.332031 36.335938 C 838.71875 37.394531 841.1875 32.257812 844.855469 29.578125 C 847.4375 27.683594 853.050781 26.722656 851.691406 22.605469 C 848.605469 24.113281 843.40625 24.382812 835.175781 31.246094 C 836.035156 29.210938 829.570312 31.9375 830.46875 34.3125 C 826.332031 32.050781 821.550781 39.546875 817.746094 36.664062 C 816.105469 38.054688 818.273438 37.878906 817.691406 39.328125 C 809.597656 41.160156 806.160156 46.015625 798.871094 48.898438 C 801.257812 43.371094 806.160156 40.304688 812.210938 38.035156 C 814.0625 37.09375 811.699219 36.78125 812.824219 35.109375 C 815.050781 34.699219 814.296875 35.535156 815.542969 36.421875 C 822.195312 29.589844 837.277344 23.734375 843.882812 16.042969 C 837.316406 19.898438 826.800781 22.660156 822.539062 28.355469 C 812.863281 31.992188 797.414062 39.425781 786.035156 46.289062 C 785.277344 46.738281 783.183594 46.996094 785.402344 47.867188 C 782.398438 47.425781 780.089844 49.382812 776.683594 51.066406 C 720.402344 78.863281 658.722656 96.699219 597.414062 107.113281 C 534.785156 117.75 470.722656 121.40625 408.214844 115.589844 C 313.253906 106.753906 222.503906 73.53125 137.023438 28.910156 C 129.765625 25.125 122.933594 20.503906 115.296875 17.425781 C 113.113281 17.15625 110.410156 19.191406 111.492188 21.867188 C 108.289062 21.300781 107.289062 19.550781 103.957031 19.023438 C 102.410156 20.035156 101.320312 21.847656 100.09375 23.421875 C 101.683594 26.964844 104.214844 30.039062 107.859375 32.527344 C 108.6875 33.9375 107.539062 33.976562 107.070312 35.378906 C 126.191406 52.71875 148.214844 66.964844 172.382812 76.179688 C 213.960938 92.042969 255.570312 108.648438 298.238281 119.472656 C 308.238281 122.011719 317.464844 122.800781 328.492188 124.363281 C 342.171875 126.300781 359.78125 130.699219 376.605469 130.863281 C 387.011719 130.964844 399.183594 134.097656 411.617188 135.019531 C 473.59375 139.601562 536.394531 138.195312 597.742188 127.652344 C 597.488281 131.894531 593.46875 128.84375 591.941406 130.726562 " fill-opacity="1" fill-rule="evenodd"/></g><path fill="#2acd35" d="M 549.664062 136.433594 C 552.882812 138.171875 560.8125 135.164062 554.675781 135.566406 C 552.847656 135.683594 552.964844 136.394531 549.664062 136.433594 " fill-opacity="1" fill-rule="evenodd"/></svg>